<svg id="Layer_1" enable-background="new 0 0 512 512" height="512" viewBox="0 0 512 512" width="512" xmlns="http://www.w3.org/2000/svg"><g><path d="m502 150h-492v322c0 16.569 13.431 30 30 30h462z" fill="#fff"/><path d="m10 60v90h492v-90c0-16.569-13.431-30-30-30h-432c-16.569 0-30 13.431-30 30zm86 50c-11.046 0-20-8.954-20-20s8.954-20 20-20 20 8.954 20 20-8.954 20-20 20zm160 0c-11.046 0-20-8.954-20-20s8.954-20 20-20 20 8.954 20 20-8.954 20-20 20zm160 0c-11.046 0-20-8.954-20-20s8.954-20 20-20 20 8.954 20 20-8.954 20-20 20z" fill="#ff5a58"/><path d="m422 422h80l-80 80z" fill="#ffbe90"/><circle cx="136" cy="266" fill="#60a4ff" r="20"/><g><path d="m123.859 492c-5.52 0-10 4.49-10 10s4.48 10 10 10c5.511 0 9.99-4.49 9.99-10s-4.479-10-9.99-10z"/><path d="m472 20h-46v-10c0-5.522-4.478-10-10-10s-10 4.478-10 10v10h-140v-10c0-5.522-4.478-10-10-10s-10 4.478-10 10v10h-140v-10c0-5.522-4.478-10-10-10s-10 4.478-10 10v10h-46c-22.056 0-40 17.944-40 40v412c0 10.689 4.16 20.729 11.72 28.28 7.55 7.56 17.59 11.72 28.28 11.72h38.859c5.511 0 9.99-4.49 9.99-10s-4.479-10-9.99-10h-38.859c-11.01-.021-19.98-8.99-20-20v-312h472v252h-70c-5.522 0-10 4.478-10 10v70h-243.141c-5.52 0-10 4.49-10 10s4.48 10 10.011 10h333.129c5.432 0 10-4.581 10-10v-442c.001-22.056-17.943-40-39.999-40zm-40 412h45.857l-45.857 45.857zm60 60h-45.857l45.857-45.857zm-76-412c5.514 0 10 4.486 10 10s-4.486 10-10 10-10-4.486-10-10 4.486-10 10-10zm-160 0c5.514 0 10 4.486 10 10s-4.486 10-10 10-10-4.486-10-10 4.486-10 10-10zm-160 0c5.514 0 10 4.486 10 10s-4.486 10-10 10-10-4.486-10-10 4.486-10 10-10zm396 60h-472v-80c0-11.028 8.972-20 20-20h46v21.72c-11.639 4.128-20 15.244-20 28.28 0 16.542 13.458 30 30 30s30-13.458 30-30c0-13.036-8.361-24.152-20-28.28v-21.72h140v21.72c-11.639 4.128-20 15.243-20 28.28 0 16.542 13.458 30 30 30s30-13.458 30-30c0-13.036-8.361-24.152-20-28.28v-21.72h140v21.72c-11.639 4.128-20 15.243-20 28.28 0 16.542 13.458 30 30 30s30-13.458 30-30c0-13.036-8.361-24.152-20-28.28v-21.72h46c11.028 0 20 8.972 20 20z"/><circle cx="316" cy="206" r="10"/><circle cx="196" cy="206" r="10"/><circle cx="256" cy="206" r="10"/><circle cx="436" cy="206" r="10"/><circle cx="376" cy="206" r="10"/><circle cx="196" cy="266" r="10"/><circle cx="256" cy="266" r="10"/><circle cx="76" cy="266" r="10"/><circle cx="376" cy="266" r="10"/><circle cx="436" cy="266" r="10"/><circle cx="316" cy="266" r="10"/><circle cx="376" cy="326" r="10"/><circle cx="316" cy="326" r="10"/><circle cx="436" cy="326" r="10"/><circle cx="196" cy="326" r="10"/><circle cx="136" cy="326" r="10"/><circle cx="76" cy="326" r="10"/><circle cx="256" cy="326" r="10"/><circle cx="76" cy="386" r="10"/><circle cx="136" cy="386" r="10"/><circle cx="316" cy="386" r="10"/><circle cx="376" cy="386" r="10"/><circle cx="256" cy="386" r="10"/><circle cx="196" cy="386" r="10"/><circle cx="436" cy="386" r="10"/><circle cx="136" cy="446" r="10"/><circle cx="196" cy="446" r="10"/><circle cx="256" cy="446" r="10"/><circle cx="76" cy="446" r="10"/><path d="m136 236c-16.542 0-30 13.458-30 30s13.458 30 30 30 30-13.458 30-30-13.458-30-30-30zm0 40c-5.514 0-10-4.486-10-10s4.486-10 10-10 10 4.486 10 10-4.486 10-10 10z"/></g></g></svg>