<svg id="Capa_1" enable-background="new 0 0 512 512" height="512" viewBox="0 0 512 512" width="512" xmlns="http://www.w3.org/2000/svg"><g><g><path d="m512 421h-512v-330h512z" fill="#ff525f"/></g><path d="m256 91h256v330h-256z" fill="#d13465"/><g id="Vip_Card_3_"><g><g><path d="m256 151h30v150h-30z" fill="#ffbe40"/></g><g><path d="m346 301h-30v-150h45c24.814 0 45 20.186 45 45s-20.186 45-45 45h-15zm0-90h15c8.276 0 15-6.724 15-15s-6.724-15-15-15h-15z" fill="#ffbe40"/></g><g><path d="m177.045 301h-21.475c-1.083-3.149-51.979-151.205-48.765-141.855l28.389-9.697 30.908 90.454 30.688-90.425 28.418 9.639z" fill="#ffdf40"/></g></g><g><g><g><path d="m61 331h390v30h-390z" fill="#665252"/></g></g></g><g><g><path d="m256 331h195v30h-195z" fill="#4d3636"/></g></g></g></g></svg>